<svg width="116" height="29" viewBox="0 0 116 29" fill="none" xmlns="http://www.w3.org/2000/svg">
    <path d="M0 .248C.845.214 1.669.165 2.496.15 5.612.092 8.73.028 11.849 0c1.897-.014 3.779.172 5.606.77 1.367.447 2.621 1.115 3.638 2.194 1.052 1.119 1.608 2.476 1.728 4.033.096 1.232-.024 2.424-.491 3.57a5.78 5.78 0 0 1-1.62 2.22c-.306.262-.637.49-.979.75.334.198.66.38.98.582 1.087.683 1.943 1.603 2.513 2.786.374.774.579 1.613.649 2.479.088 1.07.035 2.128-.257 3.164a6.69 6.69 0 0 1-1.354 2.564c-1.215 1.42-2.78 2.232-4.498 2.75-1.671.506-3.39.716-5.126.713-2.417-.006-4.831-.04-7.248-.082-1.74-.03-3.479-.095-5.218-.143-.05 0-.099-.007-.17-.01C0 18.984 0 9.634 0 .248Zm4.942 23.324c.746 0 1.47-.003 2.195 0 .81.006 1.622.028 2.432.025 1.771-.012 3.548.125 5.31-.165 1.032-.17 2.026-.451 2.874-1.14 1.034-.841 1.411-2.524.821-3.747-.4-.829-1.09-1.317-1.882-1.664-1.158-.51-2.385-.631-3.622-.64-2.618-.016-5.24-.003-7.859-.003-.09 0-.178.009-.269.012v7.322Zm0-12.331c.085.006.152.015.217.015 2.636-.003 5.275.003 7.911-.021 1.006-.01 2.005-.14 2.944-.558.838-.372 1.464-.945 1.7-1.915.264-1.076-.142-2.262-.981-2.81a5.164 5.164 0 0 0-2.327-.827 33.017 33.017 0 0 0-3.054-.167C9.537 4.946 7.719 4.985 5.9 5c-.319.003-.634 0-.959 0v6.24ZM27.43.247h.254c1.716 0 3.434 0 5.15-.003.146 0 .242.037.339.165 2.54 3.414 5.088 6.822 7.634 10.234 2.493 3.341 4.986 6.682 7.48 10.027.034.045.075.085.151.176V.262h4.913V28.35h-.271c-1.698 0-3.4-.003-5.098.003a.422.422 0 0 1-.38-.189c-2.3-3.097-4.603-6.192-6.906-9.286-2.727-3.664-5.454-7.329-8.184-10.993-.029-.04-.067-.076-.137-.156v20.596H27.43V.247Z" fill="#ffffff"/>
    <path d="M48.434.247h.257c1.715 0 3.434 0 5.15-.003.146 0 .242.037.339.168 2.54 3.414 5.088 6.823 7.634 10.234 2.493 3.341 4.986 6.682 7.48 10.027.034.045.075.085.151.176V.265h4.913v28.087h-.272c-1.698 0-3.399-.003-5.097.003a.418.418 0 0 1-.38-.192c-2.288-3.082-4.58-6.164-6.874-9.243L53.537 7.908c-.035-.049-.08-.088-.155-.177v20.6h-4.945c-.003-9.356-.003-18.7-.003-28.084ZM84.48 23.49l14.525-.083v4.924H78.12c-.006-.086-.018-.168-.018-.253 0-1.445-.003-2.894.006-4.339 0-.125.052-.277.129-.375.868-1.091 1.744-2.17 2.618-3.256l2.473-3.072c.856-1.064 1.715-2.128 2.572-3.192l2.569-3.195c.93-1.153 1.859-2.302 2.788-3.451l1.599-1.988H78.193V.271h20.982c.006.089.014.18.014.272 0 1.472.004 2.945-.005 4.417a.691.691 0 0 1-.14.396c-1.053 1.317-2.117 2.628-3.175 3.942-.92 1.147-1.838 2.296-2.759 3.442-.766.951-1.537 1.893-2.303 2.841-1.002 1.247-2.002 2.497-3.004 3.744-.684.85-1.371 1.695-2.058 2.543-.374.463-.751.926-1.125 1.393-.041.058-.076.128-.14.228ZM106.565 1.074h-1.643V.27h4.296v.804h-1.651V5.38h-1.002V1.074ZM110.026.27h1.355l1.627 4.18 1.635-4.18h1.354V5.38h-.994l.025-3.736-1.411 3.736h-1.226l-1.403-3.736.024 3.736h-.986V.27Z" fill="#ffffff"/>
</svg>
